<svg xmlns="http://www.w3.org/2000/svg" version="1.1" xmlns:xlink="http://www.w3.org/1999/xlink" xmlns:svgjs="http://svgjs.dev/svgjs" width="1500" height="1500" viewBox="0 0 1500 1500"><rect width="1500" height="1500" fill="#ffffff"></rect><g transform="matrix(0.6666666666666666,0,0,0.6666666666666666,249.39393939393938,508.95848827440284)"><svg viewBox="0 0 396 191" data-background-color="#7a310d" preserveAspectRatio="xMidYMid meet" height="723" width="1500" xmlns="http://www.w3.org/2000/svg" xmlns:xlink="http://www.w3.org/1999/xlink"><g id="tight-bounds" transform="matrix(1,0,0,1,0.2400000000000091,0.01644966719722163)"><svg viewBox="0 0 395.52 190.96710066560556" height="190.96710066560556" width="395.52"><g><svg viewBox="0 0 395.52 190.96710066560556" height="190.96710066560556" width="395.52"><g><svg viewBox="0 0 395.52 190.96710066560556" height="190.96710066560556" width="395.52"><g id="textblocktransform"><svg viewBox="0 0 395.52 190.96710066560556" height="190.96710066560556" width="395.52" id="textblock"><g><svg viewBox="0 0 395.52 158.86846883399443" height="158.86846883399443" width="395.52"><rect width="395.52" height="158.86846883399443" x="0" y="0" opacity="1" fill="#000000" data-fill-palette-color="tertiary"></rect><g transform="matrix(1,0,0,1,23.461705032,23.46170503200001)"><svg width="348.596589936" viewBox="1.7499999999999998 -34 107.89 34.65" height="111.94505876999442" data-palette-color="#7a310d"><path d="M3.95 0.55L3.95 0.55Q3.25 0.55 2.75 0.23 2.25-0.1 2.35-0.65L2.35-0.65Q3.1-4.65 3.63-8.78 4.15-12.9 4.15-17.1L4.15-17.1Q4.15-20.8 3.9-23.8 3.65-26.8 2.3-29.55L2.3-29.55Q2.05-30.1 1.9-30.5 1.75-30.9 1.75-31.25L1.75-31.25Q1.75-32.2 2.88-33.1 4-34 5.25-34L5.25-34Q7-34 7.65-31.8 8.3-29.6 8.3-25.3L8.3-25.3Q8.3-20.15 7.7-16.32 7.1-12.5 6.65-10.5L6.65-10.5 6.85-10.4Q7.85-13.05 9.28-15.35 10.7-17.65 12.6-19.05 14.5-20.45 17-20.45L17-20.45Q19.65-20.45 21.03-18.85 22.4-17.25 22.4-14.9L22.4-14.9Q22.4-13.9 22.2-12.98 22-12.05 21.75-11.2L21.75-11.2Q21.5-10.4 21.3-9.58 21.1-8.75 21.1-7.9L21.1-7.9Q21.1-6.35 21.85-5.38 22.6-4.4 23.85-4L23.85-4Q24.2-3.9 24.38-3.73 24.55-3.55 24.55-3.1L24.55-3.1Q24.55-2.65 24.25-1.8 23.95-0.95 23.15-0.23 22.35 0.5 20.8 0.5L20.8 0.5Q18.8 0.5 17.7-0.93 16.6-2.35 16.6-4.6L16.6-4.6Q16.6-5.7 16.82-6.85 17.05-8 17.35-9.05L17.35-9.05Q17.6-10.1 17.8-11.03 18-11.95 18-12.6L18-12.6Q18-14.9 15.6-14.9L15.6-14.9Q13.6-14.9 12.08-13.48 10.55-12.05 9.47-9.88 8.4-7.7 7.7-5.4L7.7-5.4 7.7-3.7Q7.7-1.85 6.63-0.65 5.55 0.55 3.95 0.55ZM35.65 0.65L35.65 0.65Q32.2 0.65 30.12-1.23 28.05-3.1 28.05-6.75L28.05-6.75Q28.05-8.45 28.52-10.05 29-11.65 29.8-13.05L29.8-13.05Q29-12.55 28.6-12.55L28.6-12.55Q28-12.55 27.77-13.23 27.55-13.9 27.55-14.55L27.55-14.55Q27.55-15.7 28.02-16.38 28.5-17.05 28.95-17.4L28.95-17.4Q30-18.3 32.25-19.38 34.5-20.45 37.65-20.45L37.65-20.45Q41.95-20.45 44.32-18.05 46.7-15.65 46.7-11.35L46.7-11.35Q46.7-8 45.3-5.28 43.9-2.55 41.42-0.95 38.95 0.65 35.65 0.65ZM37.2-4.45L37.2-4.45Q39.7-4.45 41.42-6.03 43.15-7.6 43.15-10.2L43.15-10.2Q43.15-12.9 41.4-14.05 39.65-15.2 37.35-15.2L37.35-15.2Q36.3-15.2 35.45-15 34.6-14.8 33.85-14.5L33.85-14.5Q33.15-13.5 32.6-12.25 32.05-11 32.05-9.5L32.05-9.5Q32.05-7 33.55-5.73 35.05-4.45 37.2-4.45ZM53.55 0.55L53.55 0.55Q52.75 0.55 52.27 0.28 51.8 0 51.95-0.65L51.95-0.65Q52.5-2.8 52.87-5.03 53.25-7.25 53.25-9.3L53.25-9.3Q53.25-11.95 52.92-13.18 52.6-14.4 52.05-14.88 51.5-15.35 50.7-15.6L50.7-15.6Q50.35-15.75 50.07-16 49.8-16.25 49.8-16.7L49.8-16.7Q49.8-17.4 50.35-18.25 50.9-19.1 51.9-19.73 52.9-20.35 54.2-20.35L54.2-20.35Q55.9-20.35 56.57-19.18 57.25-18 57.25-16.1L57.25-16.1Q58.15-18.1 59.47-19.28 60.8-20.45 62.8-20.45L62.8-20.45Q64.15-20.45 65.05-19.85 65.95-19.25 65.95-17.9L65.95-17.9Q65.95-16.55 65.07-15.38 64.2-14.2 63.3-14.2L63.3-14.2Q63.15-14.2 62.95-14.25 62.75-14.3 62.6-14.5L62.6-14.5Q61.95-15.3 61-15.3L61-15.3Q59.55-15.3 58.45-13.4 57.35-11.5 57.25-8.15L57.25-8.15Q57.3-6.9 57.32-5.6 57.35-4.3 57.35-3.7L57.35-3.7Q57.35-1.85 56.32-0.65 55.3 0.55 53.55 0.55ZM73.99 0.65L73.99 0.65Q71.49 0.65 70.12-0.8 68.74-2.25 68.74-5L68.74-5Q68.74-6.95 69.29-9L69.29-9Q69.54-9.85 69.69-10.7 69.84-11.55 69.84-12.4L69.84-12.4Q69.84-14.6 68.49-15.25L68.49-15.25Q67.19-15.95 67.19-16.75L67.19-16.75Q67.19-17.55 67.87-18.35 68.54-19.15 69.54-19.68 70.54-20.2 71.54-20.2L71.54-20.2Q74.39-20.2 74.39-15.55L74.39-15.55Q74.39-14.05 74.17-12.78 73.94-11.5 73.64-10.35L73.64-10.35Q73.44-9.55 73.32-8.75 73.19-7.95 73.19-7.35L73.19-7.35Q73.19-4.85 75.64-4.85L75.64-4.85Q77.94-4.85 79.94-7.3 81.94-9.75 83.24-14.15L83.24-14.15 83.19-15.1Q83.09-17.6 84.07-18.9 85.04-20.2 86.94-20.2L86.94-20.2Q88.59-20.2 88.59-19.15L88.59-19.15Q88.59-18.8 88.47-18.25 88.34-17.7 88.09-16.95L88.09-16.95Q87.59-15.1 87.24-13.03 86.89-10.95 86.89-9.2L86.89-9.2Q86.89-7.25 87.49-5.98 88.09-4.7 89.74-4.25L89.74-4.25Q90.19-4.2 90.47-3.98 90.74-3.75 90.74-3.05L90.74-3.05Q90.74-1.85 89.74-0.7 88.74 0.45 86.84 0.45L86.84 0.45Q83.19 0.45 83.19-4.7L83.19-4.7Q83.19-5.6 83.34-7.4L83.34-7.4 83.24-7.45Q80.09 0.65 73.99 0.65ZM100.19 0.65L100.19 0.65Q98.34 0.65 96.74 0.1 95.14-0.45 94.14-1.45 93.14-2.45 93.14-3.85L93.14-3.85Q93.14-4.6 93.52-5.28 93.89-5.95 94.74-5.95L94.74-5.95Q95.19-5.95 95.69-5.7L95.69-5.7Q96.59-5.2 97.99-4.78 99.39-4.35 100.94-4.35L100.94-4.35Q102.69-4.35 104.04-4.85 105.39-5.35 105.39-6.25L105.39-6.25Q105.39-6.95 104.36-7.25 103.34-7.55 100.94-7.9L100.94-7.9Q99.29-8.2 97.74-8.6 96.19-9 95.19-9.98 94.19-10.95 94.19-12.85L94.19-12.85Q94.19-14.7 95.22-16.43 96.24-18.15 98.29-19.3 100.34-20.45 103.29-20.45L103.29-20.45Q104.84-20.45 106.29-20.1 107.74-19.75 108.69-19.05 109.64-18.35 109.64-17.3L109.64-17.3Q109.64-16.4 109.02-15.65 108.39-14.9 107.56-14.43 106.74-13.95 106.19-13.95L106.19-13.95Q105.79-13.95 105.24-14.5L105.24-14.5Q104.39-15.2 103.36-15.48 102.34-15.75 101.34-15.75L101.34-15.75Q99.84-15.75 98.91-15.3 97.99-14.85 97.99-14.15L97.99-14.15Q97.99-13.5 98.77-13.1 99.54-12.7 100.69-12.53 101.84-12.35 102.89-12.2L102.89-12.2Q105.79-11.8 107.49-10.83 109.19-9.85 109.19-7.4L109.19-7.4Q109.19-5.5 108.11-3.63 107.04-1.75 105.02-0.55 102.99 0.65 100.19 0.65Z" opacity="1" transform="matrix(1,0,0,1,0,0)" fill="#ffffff" class="wordmark-text-0" data-fill-palette-color="quaternary" id="text-0"></path></svg></g></svg></g><g transform="matrix(1,0,0,1,0,170.59932134999443)"><svg viewBox="0 0 395.52 20.367779315611127" height="20.367779315611127" width="395.52"><g transform="matrix(1,0,0,1,0,0)"><svg width="395.52" viewBox="2.1499999999999995 -40.8 1047.55 53.949999999999996" height="20.367779315611127" data-palette-color="#f4de21"><path d="M2.6-39.95L2.6-39.95Q5.15-39.95 9.95-40.15 14.75-40.35 16.3-40.35L16.3-40.35 17.65-40.35Q24.2-40.35 27.4-37.68 30.6-35 30.6-30.65L30.6-30.65Q30.6-24.45 22.5-22.05L22.5-22.05 22.5-21.9Q27.2-21.2 29.93-18.23 32.65-15.25 32.65-11.1L32.65-11.1Q32.65-5.55 28.88-2.45 25.1 0.65 17.8 0.65L17.8 0.65Q15.8 0.65 11.33 0.33 6.85 0 4.2 0L4.2 0Q3.9 0 3.25 0.03 2.6 0.05 2.3 0.05L2.3 0.05Q2-0.85 2.3-1.75L2.3-1.75 6.45-2.3Q6.65-4.2 6.65-8.15L6.65-8.15 6.65-37.6 2.6-38.1Q2.4-38.85 2.6-39.95ZM16-20.3L16-20.3 12-20.3 12-2.2Q14.55-1.75 16.05-1.65L16.05-1.65Q22.1-1.65 24.4-3.93 26.7-6.2 26.7-11.05L26.7-11.05Q26.7-14.95 23.88-17.63 21.05-20.3 16-20.3ZM16.35-38.25L16.35-38.25Q13.85-38.25 12.2-37.9L12.2-37.9Q12-36 12-31.65L12-31.65 12-22.8 15.9-22.8Q20.55-22.8 22.68-24.7 24.8-26.6 24.8-30.35L24.8-30.35Q24.8-34.15 22.48-36.2 20.15-38.25 16.35-38.25ZM60.9-26.7L60.9-26.7 60.9-7.1Q60.9-3.75 61.05-2.4L61.05-2.4 65-1.9Q65.15-1.1 65 0L65 0Q61.35 0.15 57.4 0.7L57.4 0.7Q57.05 0.35 56.9-0.25L56.9-0.25 56.65-4.7Q54.55-2 52.32-0.5 50.1 1 47.1 1L47.1 1Q44.05 1 41.97-0.55 39.9-2.1 39.9-5.85L39.9-5.85 39.9-16.95Q39.9-22.65 39.75-24.25L39.75-24.25 35.8-24.75Q35.6-25.5 35.8-26.65L35.8-26.65Q39.25-26.9 44.4-27.7L44.4-27.7Q44.85-27.2 44.9-26.7L44.9-26.7Q44.65-25.4 44.65-8.35L44.65-8.35Q44.65-4.85 45.47-3.38 46.3-1.9 48.55-1.9L48.55-1.9Q52.75-1.9 56.15-6.9L56.15-6.9 56.15-17Q56.15-22.65 56-24.25L56-24.25 52.05-24.75Q51.85-25.5 52.05-26.65L52.05-26.65Q55.05-26.85 60.4-27.7L60.4-27.7Q60.85-27.2 60.9-26.7ZM76.25-18.6L76.25-18.6 76.25-2.55 80.3-1.8Q80.34-1.55 80.37-1.35 80.39-1.15 80.39-0.9L80.39-0.9Q80.39-0.65 80.37-0.38 80.34-0.1 80.3 0.2L80.3 0.2Q77.14 0.05 73.84 0.05L73.84 0.05Q72.69 0.05 71.07 0.08 69.44 0.1 67.34 0.15L67.34 0.15Q67.19-0.3 67.19-0.8L67.19-0.8Q67.19-1.25 67.34-1.8L67.34-1.8 71.3-2.35Q71.39-3.75 71.44-5.33 71.5-6.9 71.5-8.7L71.5-8.7 71.5-19.35Q71.5-22.65 71.34-24.25L71.34-24.25 67.39-24.75Q67.3-25 67.3-25.6L67.3-25.6Q67.3-25.85 67.3-26.1 67.3-26.35 67.39-26.65L67.39-26.65Q70.8-26.85 76-27.7L76-27.7Q76.44-27.2 76.5-26.7L76.5-26.7Q76.25-25.3 76.25-18.6ZM68.94-36.45L68.94-36.45Q68.84-36.7 68.84-36.98 68.84-37.25 68.84-37.5L68.84-37.5Q68.84-38.85 69.97-39.68 71.09-40.5 72.75-40.5L72.75-40.5Q74.3-40.5 75.27-39.58 76.25-38.65 76.25-37.05L76.25-37.05Q76.25-35.75 75.12-34.95 74-34.15 72.25-34.15L72.25-34.15Q71.05-34.15 70.12-34.75 69.19-35.35 68.94-36.45ZM91.19-31.7L91.19-31.7 91.19-2.55 95.24-1.8Q95.44-1 95.24 0.2L95.24 0.2Q92.09 0.05 88.79 0.05L88.79 0.05Q86.49 0.05 82.29 0.15L82.29 0.15Q81.99-0.8 82.29-1.8L82.29-1.8 86.24-2.35Q86.44-5.1 86.44-8.7L86.44-8.7 86.44-37.35 82.34-37.85Q82.14-38.6 82.34-39.75L82.34-39.75Q85.79-40 90.94-40.8L90.94-40.8Q91.39-40.3 91.44-39.8L91.44-39.8Q91.19-38.5 91.19-31.7ZM122.59-31.7L122.59-7.1Q122.59-3.75 122.74-2.4L122.74-2.4 126.69-1.9Q126.84-1.1 126.69 0L126.69 0Q123.04 0.15 119.09 0.7L119.09 0.7Q118.74 0.35 118.59-0.25L118.59-0.25 118.34-3.45Q116.59-1.4 113.99-0.18 111.39 1.05 108.54 1.05L108.54 1.05Q104.19 1.05 101.34-2.58 98.49-6.2 98.49-12.25L98.49-12.25Q98.49-19.25 102.22-23.48 105.94-27.7 111.14-27.7L111.14-27.7Q115.24-27.7 117.84-25.75L117.84-25.75 117.84-32.45Q117.84-35.75 117.69-37.35L117.69-37.35 113.74-37.85Q113.54-38.6 113.74-39.75L113.74-39.75Q117.19-40 122.34-40.8L122.34-40.8Q122.79-40.3 122.84-39.8L122.84-39.8Q122.59-38.5 122.59-31.7L122.59-31.7ZM110.74-25L110.74-25Q107.49-25 105.54-21.58 103.59-18.15 103.59-12.1L103.59-12.1Q103.59-7.15 105.42-4.55 107.24-1.95 110.24-1.95L110.24-1.95Q112.04-1.95 114.19-3.08 116.34-4.2 117.84-6.2L117.84-6.2 117.84-22.2Q115.39-25 110.74-25ZM137.94-18.6L137.94-18.6 137.94-2.55 141.99-1.8Q142.04-1.55 142.06-1.35 142.09-1.15 142.09-0.9L142.09-0.9Q142.09-0.65 142.06-0.38 142.04-0.1 141.99 0.2L141.99 0.2Q138.84 0.05 135.54 0.05L135.54 0.05Q134.39 0.05 132.76 0.08 131.14 0.1 129.04 0.15L129.04 0.15Q128.89-0.3 128.89-0.8L128.89-0.8Q128.89-1.25 129.04-1.8L129.04-1.8 132.99-2.35Q133.09-3.75 133.14-5.33 133.19-6.9 133.19-8.7L133.19-8.7 133.19-19.35Q133.19-22.65 133.04-24.25L133.04-24.25 129.09-24.75Q128.99-25 128.99-25.6L128.99-25.6Q128.99-25.85 128.99-26.1 128.99-26.35 129.09-26.65L129.09-26.65Q132.49-26.85 137.69-27.7L137.69-27.7Q138.14-27.2 138.19-26.7L138.19-26.7Q137.94-25.3 137.94-18.6ZM130.64-36.45L130.64-36.45Q130.54-36.7 130.54-36.98 130.54-37.25 130.54-37.5L130.54-37.5Q130.54-38.85 131.66-39.68 132.79-40.5 134.44-40.5L134.44-40.5Q135.99-40.5 136.96-39.58 137.94-38.65 137.94-37.05L137.94-37.05Q137.94-35.75 136.81-34.95 135.69-34.15 133.94-34.15L133.94-34.15Q132.74-34.15 131.81-34.75 130.89-35.35 130.64-36.45ZM165.34-8.7L165.34-17.85Q165.34-21.7 164.31-23.25 163.29-24.8 160.89-24.8L160.89-24.8Q157.19-24.8 153.44-19.25L153.44-19.25 153.44-2.55 157.49-1.8Q157.69-1 157.49 0.2L157.49 0.2Q154.34 0.05 151.04 0.05L151.04 0.05Q148.74 0.05 144.54 0.15L144.54 0.15Q144.24-0.8 144.54-1.8L144.54-1.8 148.49-2.35Q148.69-5.1 148.69-8.7L148.69-8.7 148.69-22.4Q148.69-23.4 148.54-24.25L148.54-24.25 144.59-24.75Q144.39-25.5 144.59-26.65L144.59-26.65Q148.04-26.9 153.19-27.7L153.19-27.7Q153.64-27.2 153.69-26.7L153.69-26.7Q153.44-25.4 153.44-22.25L153.44-22.25Q157.39-27.7 162.34-27.7L162.34-27.7Q170.09-27.7 170.09-20.35L170.09-20.35 170.09-2.55 174.14-1.8Q174.34-1 174.14 0.2L174.14 0.2Q170.99 0.05 167.69 0.05L167.69 0.05Q165.39 0.05 161.19 0.15L161.19 0.15Q160.89-0.8 161.19-1.8L161.19-1.8 165.14-2.35Q165.34-5.1 165.34-8.7L165.34-8.7ZM180.88 0.55L180.88 0.55Q181.33 0.75 181.63 1.4L181.63 1.4Q179.98 2.75 179.98 5.45L179.98 5.45Q179.98 7.85 182.18 9.3 184.38 10.75 187.88 10.75L187.88 10.75Q191.48 10.75 193.88 9.43 196.28 8.1 196.28 5.7L196.28 5.7Q196.28 3.1 195.33 1.88 194.38 0.65 191.53 0.4L191.53 0.4 182.18-0.45Q180.63-0.65 179.61-2.08 178.58-3.5 178.58-4.85L178.58-4.85 181.93-10.4Q179.63-11.7 178.46-13.85 177.28-16 177.28-18.25L177.28-18.25Q177.28-22.5 180.43-25.1 183.58-27.7 187.68-27.7L187.68-27.7Q191.63-27.7 194.63-25.6L194.63-25.6Q194.88-32.45 199.73-32.7L199.73-32.7Q201.03-32.4 201.03-30.55L201.03-30.55Q201.03-29.55 200.83-28.35L200.83-28.35Q198.88-28.2 197.63-27.08 196.38-25.95 195.83-24.5L195.83-24.5Q198.33-22 198.33-18.25L198.33-18.25Q198.33-14.3 195.13-11.68 191.93-9.05 187.68-9.05L187.68-9.05Q185.43-9.05 183.63-9.65L183.63-9.65 181.93-5.2 194.38-3.95Q197.28-3.6 198.81-1.83 200.33-0.05 200.33 2.8L200.33 2.8Q200.33 7.8 196.73 10.48 193.13 13.15 186.98 13.15L186.98 13.15Q181.88 13.15 179.03 11.3 176.18 9.45 176.18 6.35L176.18 6.35Q176.18 4.25 177.53 2.63 178.88 1 180.88 0.55ZM181.78-18.25L181.78-18.25Q181.78-15.35 183.41-13.3 185.03-11.25 187.73-11.25L187.73-11.25Q190.38-11.25 192.08-13.28 193.78-15.3 193.78-18.25L193.78-18.25Q193.78-21.45 192.11-23.58 190.43-25.7 187.73-25.7L187.73-25.7Q185.18-25.7 183.48-23.55 181.78-21.4 181.78-18.25ZM248.18-7.4L248.18-7.4Q249.03-6.85 249.48-5.5L249.48-5.5Q242.53 1 235.38 1L235.38 1Q230.48 1 226.83-0.78 223.18-2.55 220.78-5.48 218.38-8.4 217.2-12.13 216.03-15.85 216.03-19.75L216.03-19.75Q216.03-23.7 217.38-27.48 218.73-31.25 221.33-34.23 223.93-37.2 227.75-39 231.58-40.8 236.48-40.8L236.48-40.8Q242.93-40.8 248.48-37.8L248.48-37.8 248.48-28.2Q247.58-28.05 246.88-28.05L246.88-28.05Q246.13-28.05 245.63-28.2L245.63-28.2 244.03-36.55Q240.98-38.55 235.88-38.55L235.88-38.55Q232.73-38.55 230.2-37.13 227.68-35.7 225.9-33.27 224.13-30.85 223.18-27.58 222.23-24.3 222.23-20.6L222.23-20.6Q222.23-16.65 223.15-13.3 224.08-9.95 225.78-7.5 227.48-5.05 229.9-3.68 232.33-2.3 235.33-2.3L235.33-2.3Q238.93-2.3 242.28-3.7 245.63-5.1 248.18-7.4ZM261.28-31.7L261.28-31.7 261.28-2.55 265.33-1.8Q265.53-1 265.33 0.2L265.33 0.2Q262.18 0.05 258.88 0.05L258.88 0.05Q256.58 0.05 252.38 0.15L252.38 0.15Q252.08-0.8 252.38-1.8L252.38-1.8 256.33-2.35Q256.53-5.1 256.53-8.7L256.53-8.7 256.53-37.35 252.43-37.85Q252.23-38.6 252.43-39.75L252.43-39.75Q255.88-40 261.03-40.8L261.03-40.8Q261.48-40.3 261.53-39.8L261.53-39.8Q261.28-38.5 261.28-31.7ZM276.77-18.6L276.77-18.6 276.77-2.55 280.82-1.8Q280.87-1.55 280.9-1.35 280.92-1.15 280.92-0.9L280.92-0.9Q280.92-0.65 280.9-0.38 280.87-0.1 280.82 0.2L280.82 0.2Q277.67 0.05 274.37 0.05L274.37 0.05Q273.22 0.05 271.6 0.08 269.97 0.1 267.87 0.15L267.87 0.15Q267.72-0.3 267.72-0.8L267.72-0.8Q267.72-1.25 267.87-1.8L267.87-1.8 271.82-2.35Q271.92-3.75 271.97-5.33 272.02-6.9 272.02-8.7L272.02-8.7 272.02-19.35Q272.02-22.65 271.87-24.25L271.87-24.25 267.92-24.75Q267.82-25 267.82-25.6L267.82-25.6Q267.82-25.85 267.82-26.1 267.82-26.35 267.92-26.65L267.92-26.65Q271.32-26.85 276.52-27.7L276.52-27.7Q276.97-27.2 277.02-26.7L277.02-26.7Q276.77-25.3 276.77-18.6ZM269.47-36.45L269.47-36.45Q269.37-36.7 269.37-36.98 269.37-37.25 269.37-37.5L269.37-37.5Q269.37-38.85 270.5-39.68 271.62-40.5 273.27-40.5L273.27-40.5Q274.82-40.5 275.8-39.58 276.77-38.65 276.77-37.05L276.77-37.05Q276.77-35.75 275.65-34.95 274.52-34.15 272.77-34.15L272.77-34.15Q271.57-34.15 270.65-34.75 269.72-35.35 269.47-36.45ZM320.47-8.7L320.47-17.85Q320.47-24.8 316.02-24.8L316.02-24.8Q312.22-24.8 308.82-19.55L308.82-19.55 308.82-2.55 312.87-1.8Q313.07-1 312.87 0.2L312.87 0.2Q309.72 0.05 306.47 0.05L306.47 0.05Q304.17 0.05 299.97 0.15L299.97 0.15Q299.67-0.8 299.97-1.8L299.97-1.8 303.92-2.35Q304.12-5.1 304.12-8.7L304.12-8.7 304.12-17.85Q304.12-24.8 299.67-24.8L299.67-24.8Q297.42-24.8 295.72-23.43 294.02-22.05 292.22-19.15L292.22-19.15 292.22-2.55 296.27-1.8Q296.47-1 296.27 0.2L296.27 0.2Q293.12 0.05 289.87 0.05L289.87 0.05Q287.57 0.05 283.37 0.15L283.37 0.15Q283.07-0.8 283.37-1.8L283.37-1.8 287.32-2.35Q287.52-5.1 287.52-8.7L287.52-8.7 287.52-22.4Q287.52-23.4 287.37-24.25L287.37-24.25 283.42-24.75Q283.22-25.5 283.42-26.65L283.42-26.65Q286.77-26.9 291.97-27.7L291.97-27.7Q292.42-27.2 292.47-26.7L292.47-26.7Q292.22-25.4 292.22-22.25L292.22-22.25Q296.17-27.7 301.12-27.7L301.12-27.7Q303.72-27.7 305.87-26.38 308.02-25.05 308.62-22.3L308.62-22.3Q312.62-27.7 317.47-27.7L317.47-27.7Q320.52-27.7 322.85-25.9 325.17-24.1 325.17-20.35L325.17-20.35 325.17-2.55 329.22-1.8Q329.42-1 329.22 0.2L329.22 0.2Q326.07 0.05 322.82 0.05L322.82 0.05Q320.52 0.05 316.32 0.15L316.32 0.15Q316.02-0.8 316.32-1.8L316.32-1.8 320.27-2.35Q320.47-5.1 320.47-8.7L320.47-8.7ZM336.67-6.65L336.67-6.65Q336.67-4.05 337.62-2.98 338.57-1.9 340.62-1.9L340.62-1.9Q342.12-1.9 343.94-2.83 345.77-3.75 347.32-5.5L347.32-5.5 347.32-13.3Q342.17-13 339.42-11.48 336.67-9.95 336.67-6.65ZM347.32-15.1L347.32-15.1 347.32-17.65Q347.32-21.9 346.34-23.83 345.37-25.75 343.12-25.75L343.12-25.75Q340.82-25.75 339.42-24.28 338.02-22.8 337.52-19.25L337.52-19.25Q335.92-18.9 335.17-18.9L335.17-18.9Q333.22-18.9 332.87-20.3L332.87-20.3Q332.87-23.7 335.82-25.7 338.77-27.7 343.17-27.7L343.17-27.7Q348.02-27.7 350.04-25.73 352.07-23.75 352.07-18.65L352.07-18.65 352.07-4.55Q352.07-3.3 352.22-2.4L352.22-2.4 356.17-1.9Q356.37-1.15 356.17 0L356.17 0Q352.62 0.15 348.62 0.7L348.62 0.7Q348.22 0.3 348.12-0.3L348.12-0.3 347.87-3.75Q343.72 1 338.62 1L338.62 1Q335.47 1 333.69-0.8 331.92-2.6 331.92-5.65L331.92-5.65Q331.92-10.25 336.09-12.6 340.27-14.95 347.32-15.1ZM366.12-32.7L366.12-32.7 366.12-25.55 373.17-25.55Q373.27-24.95 373.27-24.65L373.27-24.65Q373.27-24.2 373.17-23.6L373.17-23.6 366.12-22.55 366.12-8.8Q366.12-5.1 366.79-3.58 367.47-2.05 368.92-2.05L368.92-2.05Q370.22-2.05 372.97-3.1L372.97-3.1Q373.47-2.65 373.67-1.4L373.67-1.4Q372.17-0.5 371.39-0.08 370.62 0.35 369.44 0.68 368.27 1 366.97 1L366.97 1Q364.47 1 362.89-0.93 361.32-2.85 361.32-6.8L361.32-6.8 361.32-23.15 357.82-23.6Q357.72-24.1 357.72-24.45L357.72-24.45Q357.72-24.85 357.82-25.55L357.82-25.55Q359.22-25.8 360.24-26.43 361.27-27.05 361.97-28.18 362.67-29.3 363.04-30.18 363.42-31.05 363.97-32.7L363.97-32.7Q364.42-32.85 365.07-32.85L365.07-32.85Q365.67-32.85 366.12-32.7ZM397.46-14.1L397.46-14.1 381.76-14.1Q381.31-1.35 389.41-1.35L389.41-1.35Q392.86-1.35 396.46-4.4L396.46-4.4Q397.21-3.95 397.61-2.85L397.61-2.85Q394.16 1 388.86 1L388.86 1Q376.66 1 376.66-13.35L376.66-13.35Q376.66-20.15 380.26-23.93 383.86-27.7 388.66-27.7L388.66-27.7Q393.91-27.7 396.21-24.05 398.51-20.4 398.51-14.55L398.51-14.55Q398.01-14.15 397.46-14.1ZM388.56-25.7L388.56-25.7Q385.96-25.7 384.14-23 382.31-20.3 381.91-16.1L381.91-16.1 388.11-16.1Q391.81-16.1 393.41-16.55L393.41-16.55Q393.41-20.65 392.16-23.18 390.91-25.7 388.56-25.7ZM415.56-39.95L415.56-39.95Q417.61-39.95 422.08-40.15 426.56-40.35 430.21-40.35L430.21-40.35Q437.81-40.35 441.06-37.33 444.31-34.3 444.31-28.9L444.31-28.9Q444.31-25.65 442.06-23.05 439.81-20.45 436.16-19.15L436.16-19.15Q438.31-15.5 440.18-12.3 442.06-9.1 442.91-7.55 443.76-6 444.46-4.78 445.16-3.55 445.48-3.1 445.81-2.65 446.11-2.35L446.11-2.35 449.71-1.85Q449.91-1.1 449.71 0L449.71 0 441.21 0 433.66-13.7Q432.16-16.55 430.81-18.1L430.81-18.1 430.11-18.1Q427.56-18.1 424.96-18.4L424.96-18.4 424.96-2.2 429.51-1.7Q429.71-0.95 429.51 0.15L429.51 0.15Q426.36 0 422.41 0L422.41 0Q419.46 0 415.26 0.1L415.26 0.1Q414.96-0.8 415.26-1.7L415.26-1.7 419.41-2.3Q419.61-4.2 419.61-8.15L419.61-8.15 419.61-37.6 415.56-38.1Q415.36-38.85 415.56-39.95ZM424.96-31.65L424.96-31.65 424.96-20.45Q426.51-20.25 429.46-20.25L429.46-20.25Q432.01-20.25 433.83-21.08 435.66-21.9 436.56-23.28 437.46-24.65 437.86-26.1 438.26-27.55 438.26-29.15L438.26-29.15Q438.26-33.45 436.11-35.85 433.96-38.25 428.96-38.25L428.96-38.25Q427.11-38.25 425.26-37.9L425.26-37.9Q424.96-35.05 424.96-31.65ZM471.56-14.1L471.56-14.1 455.86-14.1Q455.41-1.35 463.51-1.35L463.51-1.35Q466.96-1.35 470.56-4.4L470.56-4.4Q471.31-3.95 471.71-2.85L471.71-2.85Q468.26 1 462.96 1L462.96 1Q450.76 1 450.76-13.35L450.76-13.35Q450.76-20.15 454.36-23.93 457.96-27.7 462.76-27.7L462.76-27.7Q468.01-27.7 470.31-24.05 472.61-20.4 472.61-14.55L472.61-14.55Q472.11-14.15 471.56-14.1ZM462.66-25.7L462.66-25.7Q460.06-25.7 458.23-23 456.41-20.3 456.01-16.1L456.01-16.1 462.21-16.1Q465.91-16.1 467.51-16.55L467.51-16.55Q467.51-20.65 466.26-23.18 465.01-25.7 462.66-25.7ZM485.85-1.2L485.85-1.2Q488.55-1.2 489.85-2.45 491.15-3.7 491.15-5.35L491.15-5.35Q491.15-6.3 490.85-7.1 490.55-7.9 489.88-8.65 489.2-9.4 488.1-10.13 487-10.85 485.35-11.7L485.35-11.7Q483.3-12.75 481.83-13.7 480.35-14.65 479.4-15.7 478.45-16.75 477.98-17.95 477.5-19.15 477.5-20.65L477.5-20.65Q477.5-22.45 478.15-23.78 478.8-25.1 479.98-25.98 481.15-26.85 482.75-27.28 484.35-27.7 486.3-27.7L486.3-27.7Q490.2-27.7 493.9-25.8L493.9-25.8 493.9-19.4 491.55-19.4 490.45-24.8Q488.25-25.85 485.8-25.85L485.8-25.85Q481.7-25.85 481.7-22.5L481.7-22.5Q481.7-20.7 483.05-19.2 484.4-17.7 487.4-16.2L487.4-16.2Q489.45-15.15 491-14.2 492.55-13.25 493.58-12.2 494.6-11.15 495.13-9.93 495.65-8.7 495.65-7.15L495.65-7.15Q495.65-5.4 494.9-3.9 494.15-2.4 492.8-1.33 491.45-0.25 489.55 0.38 487.65 1 485.35 1L485.35 1Q480.9 1 477-0.9L477-0.9 477-7.3 479.35-7.3 480.45-2.35Q483-1.2 485.85-1.2ZM508.15-18.6L508.15-18.6 508.15-2.55 512.2-1.8Q512.25-1.55 512.28-1.35 512.3-1.15 512.3-0.9L512.3-0.9Q512.3-0.65 512.28-0.38 512.25-0.1 512.2 0.2L512.2 0.2Q509.05 0.05 505.75 0.05L505.75 0.05Q504.6 0.05 502.98 0.08 501.35 0.1 499.25 0.15L499.25 0.15Q499.1-0.3 499.1-0.8L499.1-0.8Q499.1-1.25 499.25-1.8L499.25-1.8 503.2-2.35Q503.3-3.75 503.35-5.33 503.4-6.9 503.4-8.7L503.4-8.7 503.4-19.35Q503.4-22.65 503.25-24.25L503.25-24.25 499.3-24.75Q499.2-25 499.2-25.6L499.2-25.6Q499.2-25.85 499.2-26.1 499.2-26.35 499.3-26.65L499.3-26.65Q502.7-26.85 507.9-27.7L507.9-27.7Q508.35-27.2 508.4-26.7L508.4-26.7Q508.15-25.3 508.15-18.6ZM500.85-36.45L500.85-36.45Q500.75-36.7 500.75-36.98 500.75-37.25 500.75-37.5L500.75-37.5Q500.75-38.85 501.88-39.68 503-40.5 504.65-40.5L504.65-40.5Q506.2-40.5 507.18-39.58 508.15-38.65 508.15-37.05L508.15-37.05Q508.15-35.75 507.03-34.95 505.9-34.15 504.15-34.15L504.15-34.15Q502.95-34.15 502.03-34.75 501.1-35.35 500.85-36.45ZM523.1-31.7L523.1-31.7 523.1-2.55 527.15-1.8Q527.35-1 527.15 0.2L527.15 0.2Q524 0.05 520.7 0.05L520.7 0.05Q518.4 0.05 514.2 0.15L514.2 0.15Q513.9-0.8 514.2-1.8L514.2-1.8 518.15-2.35Q518.35-5.1 518.35-8.7L518.35-8.7 518.35-37.35 514.25-37.85Q514.05-38.6 514.25-39.75L514.25-39.75Q517.7-40 522.85-40.8L522.85-40.8Q523.3-40.3 523.35-39.8L523.35-39.8Q523.1-38.5 523.1-31.7ZM538.6-18.6L538.6-18.6 538.6-2.55 542.65-1.8Q542.7-1.55 542.72-1.35 542.75-1.15 542.75-0.9L542.75-0.9Q542.75-0.65 542.72-0.38 542.7-0.1 542.65 0.2L542.65 0.2Q539.5 0.05 536.2 0.05L536.2 0.05Q535.05 0.05 533.42 0.08 531.8 0.1 529.7 0.15L529.7 0.15Q529.55-0.3 529.55-0.8L529.55-0.8Q529.55-1.25 529.7-1.8L529.7-1.8 533.65-2.35Q533.75-3.75 533.8-5.33 533.85-6.9 533.85-8.7L533.85-8.7 533.85-19.35Q533.85-22.65 533.7-24.25L533.7-24.25 529.75-24.75Q529.65-25 529.65-25.6L529.65-25.6Q529.65-25.85 529.65-26.1 529.65-26.35 529.75-26.65L529.75-26.65Q533.15-26.85 538.35-27.7L538.35-27.7Q538.8-27.2 538.85-26.7L538.85-26.7Q538.6-25.3 538.6-18.6ZM531.3-36.45L531.3-36.45Q531.2-36.7 531.2-36.98 531.2-37.25 531.2-37.5L531.2-37.5Q531.2-38.85 532.32-39.68 533.45-40.5 535.1-40.5L535.1-40.5Q536.65-40.5 537.62-39.58 538.6-38.65 538.6-37.05L538.6-37.05Q538.6-35.75 537.47-34.95 536.35-34.15 534.6-34.15L534.6-34.15Q533.4-34.15 532.47-34.75 531.55-35.35 531.3-36.45ZM566.74-14.1L566.74-14.1 551.04-14.1Q550.59-1.35 558.69-1.35L558.69-1.35Q562.14-1.35 565.74-4.4L565.74-4.4Q566.49-3.95 566.89-2.85L566.89-2.85Q563.44 1 558.14 1L558.14 1Q545.94 1 545.94-13.35L545.94-13.35Q545.94-20.15 549.54-23.93 553.14-27.7 557.94-27.7L557.94-27.7Q563.19-27.7 565.49-24.05 567.79-20.4 567.79-14.55L567.79-14.55Q567.29-14.15 566.74-14.1ZM557.84-25.7L557.84-25.7Q555.24-25.7 553.42-23 551.59-20.3 551.19-16.1L551.19-16.1 557.39-16.1Q561.09-16.1 562.69-16.55L562.69-16.55Q562.69-20.65 561.44-23.18 560.19-25.7 557.84-25.7ZM592.24-8.7L592.24-17.85Q592.24-21.7 591.21-23.25 590.19-24.8 587.79-24.8L587.79-24.8Q584.09-24.8 580.34-19.25L580.34-19.25 580.34-2.55 584.39-1.8Q584.59-1 584.39 0.2L584.39 0.2Q581.24 0.05 577.94 0.05L577.94 0.05Q575.64 0.05 571.44 0.15L571.44 0.15Q571.14-0.8 571.44-1.8L571.44-1.8 575.39-2.35Q575.59-5.1 575.59-8.7L575.59-8.7 575.59-22.4Q575.59-23.4 575.44-24.25L575.44-24.25 571.49-24.75Q571.29-25.5 571.49-26.65L571.49-26.65Q574.94-26.9 580.09-27.7L580.09-27.7Q580.54-27.2 580.59-26.7L580.59-26.7Q580.34-25.4 580.34-22.25L580.34-22.25Q584.29-27.7 589.24-27.7L589.24-27.7Q596.99-27.7 596.99-20.35L596.99-20.35 596.99-2.55 601.04-1.8Q601.24-1 601.04 0.2L601.04 0.2Q597.89 0.05 594.59 0.05L594.59 0.05Q592.29 0.05 588.09 0.15L588.09 0.15Q587.79-0.8 588.09-1.8L588.09-1.8 592.04-2.35Q592.24-5.1 592.24-8.7L592.24-8.7ZM625.69-20.3L625.69-20.3Q624.64-19.2 620.74-19.25L620.74-19.25Q619.94-25.55 616.19-25.55L616.19-25.55Q613.24-25.55 611.19-22.15 609.14-18.75 609.14-13.2L609.14-13.2Q609.14-7.5 610.94-4.42 612.74-1.35 616.34-1.35L616.34-1.35Q620.14-1.35 623.79-4.45L623.79-4.45Q624.54-4 624.94-2.9L624.94-2.9Q621.29 1 615.79 1L615.79 1Q610.54 1 607.19-2.63 603.84-6.25 603.84-13.3L603.84-13.3Q603.84-20.05 607.56-23.88 611.29-27.7 616.09-27.7L616.09-27.7Q619.89-27.7 622.79-25.8 625.69-23.9 625.69-20.3ZM650.23-14.1L650.23-14.1 634.53-14.1Q634.08-1.35 642.18-1.35L642.18-1.35Q645.63-1.35 649.23-4.4L649.23-4.4Q649.98-3.95 650.38-2.85L650.38-2.85Q646.93 1 641.63 1L641.63 1Q629.43 1 629.43-13.35L629.43-13.35Q629.43-20.15 633.03-23.93 636.63-27.7 641.43-27.7L641.43-27.7Q646.68-27.7 648.98-24.05 651.28-20.4 651.28-14.55L651.28-14.55Q650.78-14.15 650.23-14.1ZM641.33-25.7L641.33-25.7Q638.73-25.7 636.91-23 635.08-20.3 634.68-16.1L634.68-16.1 640.88-16.1Q644.58-16.1 646.18-16.55L646.18-16.55Q646.18-20.65 644.93-23.18 643.68-25.7 641.33-25.7ZM667.03-28.2L667.08-39.8 701.63-39.8 701.68-28.2Q700.58-28 699.83-28.2L699.83-28.2 697.48-37.25 687.08-37.25 687.08-2.2 692.13-1.7Q692.33-0.95 692.13 0.15L692.13 0.15Q688.98 0 684.53 0L684.53 0Q681.08 0 676.88 0.1L676.88 0.1Q676.58-0.8 676.88-1.7L676.88-1.7 681.53-2.3Q681.73-4.2 681.73-8.15L681.73-8.15 681.73-37.25 671.23-37.25 668.88-28.2Q668.13-28 667.03-28.2L667.03-28.2ZM708.13-8.7L708.13-32.45Q708.13-35.75 707.98-37.35L707.98-37.35 704.03-37.85Q703.83-38.6 704.03-39.75L704.03-39.75Q707.38-40 712.58-40.8L712.58-40.8Q713.03-40.3 713.08-39.8L713.08-39.8Q712.83-38.5 712.83-31.7L712.83-31.7 712.83-22.25Q716.53-27.35 721.73-27.35L721.73-27.35Q724.83-27.35 727.03-25.8 729.23-24.25 729.23-20.5L729.23-20.5 729.23-2.55 733.28-1.8Q733.48-1 733.28 0.2L733.28 0.2Q730.13 0.05 726.88 0.05L726.88 0.05Q724.58 0.05 720.38 0.15L720.38 0.15Q720.08-0.8 720.38-1.8L720.38-1.8 724.33-2.35Q724.53-5.1 724.53-8.7L724.53-8.7 724.53-18Q724.53-21.5 723.65-23.05 722.78-24.6 720.48-24.6L720.48-24.6Q718.58-24.6 716.5-23.2 714.43-21.8 712.83-19.15L712.83-19.15 712.83-2.55 716.88-1.8Q717.08-1 716.88 0.2L716.88 0.2Q713.73 0.05 710.48 0.05L710.48 0.05Q708.18 0.05 703.98 0.15L703.98 0.15Q703.68-0.8 703.98-1.8L703.98-1.8 707.93-2.35Q708.13-5.1 708.13-8.7L708.13-8.7ZM744.72-26.7L744.72-26.7 744.62-21.55Q745.87-23.85 748.1-25.78 750.32-27.7 752.32-27.7L752.32-27.7Q753.87-27.7 755.07-27.35L755.07-27.35Q755.47-26.7 755.47-25.65L755.47-25.65Q755.47-24 754.77-22.35L754.77-22.35Q752.97-22.85 751.32-22.85L751.32-22.85Q747.22-22.85 744.57-18.85L744.57-18.85 744.47-10.1 744.47-2.55 750.02-1.8Q750.22-1 750.02 0.2L750.02 0.2Q746.87 0.05 742.82 0.05L742.82 0.05Q739.77 0.05 735.57 0.15L735.57 0.15Q735.27-0.8 735.57-1.8L735.57-1.8 739.52-2.35Q739.72-5.1 739.72-8.7L739.72-8.7 739.72-22.4Q739.72-23.4 739.57-24.25L739.57-24.25 735.62-24.75Q735.42-25.5 735.62-26.65L735.62-26.65Q739.07-26.9 744.22-27.7L744.22-27.7Q744.67-27.2 744.72-26.7ZM757.77-13.3L757.77-13.3Q757.77-16.3 758.65-18.93 759.52-21.55 761.17-23.5 762.82-25.45 765.15-26.58 767.47-27.7 770.37-27.7L770.37-27.7Q773.22-27.7 775.57-26.58 777.92-25.45 779.6-23.5 781.27-21.55 782.17-18.93 783.07-16.3 783.07-13.3L783.07-13.3Q783.07-10.2 782.15-7.6 781.22-5 779.55-3.08 777.87-1.15 775.52-0.08 773.17 1 770.37 1L770.37 1Q767.42 1 765.1-0.05 762.77-1.1 761.15-3 759.52-4.9 758.65-7.53 757.77-10.15 757.77-13.3ZM765.07-22.5L765.07-22.5Q762.92-19.45 762.92-13.3L762.92-13.3Q762.92-10.25 763.5-7.95 764.07-5.65 765.07-4.13 766.07-2.6 767.42-1.85 768.77-1.1 770.37-1.1L770.37-1.1Q771.92-1.1 773.32-1.85 774.72-2.6 775.72-4.13 776.72-5.65 777.32-7.95 777.92-10.25 777.92-13.3L777.92-13.3Q777.92-16.35 777.32-18.68 776.72-21 775.7-22.53 774.67-24.05 773.3-24.83 771.92-25.6 770.37-25.6L770.37-25.6Q767.27-25.6 765.07-22.5ZM811.02-26.7L811.02-26.7 811.02-7.1Q811.02-3.75 811.17-2.4L811.17-2.4 815.12-1.9Q815.27-1.1 815.12 0L815.12 0Q811.47 0.15 807.52 0.7L807.52 0.7Q807.17 0.35 807.02-0.25L807.02-0.25 806.77-4.7Q804.67-2 802.44-0.5 800.22 1 797.22 1L797.22 1Q794.17 1 792.09-0.55 790.02-2.1 790.02-5.85L790.02-5.85 790.02-16.95Q790.02-22.65 789.87-24.25L789.87-24.25 785.92-24.75Q785.72-25.5 785.92-26.65L785.92-26.65Q789.37-26.9 794.52-27.7L794.52-27.7Q794.97-27.2 795.02-26.7L795.02-26.7Q794.77-25.4 794.77-8.35L794.77-8.35Q794.77-4.85 795.59-3.38 796.42-1.9 798.67-1.9L798.67-1.9Q802.87-1.9 806.27-6.9L806.27-6.9 806.27-17Q806.27-22.65 806.12-24.25L806.12-24.25 802.17-24.75Q801.97-25.5 802.17-26.65L802.17-26.65Q805.17-26.85 810.52-27.7L810.52-27.7Q810.97-27.2 811.02-26.7ZM821.97 0.55L821.97 0.55Q822.42 0.75 822.72 1.4L822.72 1.4Q821.07 2.75 821.07 5.45L821.07 5.45Q821.07 7.85 823.27 9.3 825.47 10.75 828.97 10.75L828.97 10.75Q832.57 10.75 834.97 9.43 837.37 8.1 837.37 5.7L837.37 5.7Q837.37 3.1 836.42 1.88 835.47 0.65 832.62 0.4L832.62 0.4 823.27-0.45Q821.72-0.65 820.69-2.08 819.67-3.5 819.67-4.85L819.67-4.85 823.02-10.4Q820.72-11.7 819.54-13.85 818.37-16 818.37-18.25L818.37-18.25Q818.37-22.5 821.52-25.1 824.67-27.7 828.77-27.7L828.77-27.7Q832.72-27.7 835.72-25.6L835.72-25.6Q835.97-32.45 840.82-32.7L840.82-32.7Q842.12-32.4 842.12-30.55L842.12-30.55Q842.12-29.55 841.92-28.35L841.92-28.35Q839.97-28.2 838.72-27.08 837.47-25.95 836.92-24.5L836.92-24.5Q839.42-22 839.42-18.25L839.42-18.25Q839.42-14.3 836.22-11.68 833.02-9.05 828.77-9.05L828.77-9.05Q826.52-9.05 824.72-9.65L824.72-9.65 823.02-5.2 835.47-3.95Q838.37-3.6 839.89-1.83 841.42-0.05 841.42 2.8L841.42 2.8Q841.42 7.8 837.82 10.48 834.22 13.15 828.07 13.15L828.07 13.15Q822.97 13.15 820.12 11.3 817.27 9.45 817.27 6.35L817.27 6.35Q817.27 4.25 818.62 2.63 819.97 1 821.97 0.55ZM822.87-18.25L822.87-18.25Q822.87-15.35 824.49-13.3 826.12-11.25 828.82-11.25L828.82-11.25Q831.47-11.25 833.17-13.28 834.87-15.3 834.87-18.25L834.87-18.25Q834.87-21.45 833.19-23.58 831.52-25.7 828.82-25.7L828.82-25.7Q826.27-25.7 824.57-23.55 822.87-21.4 822.87-18.25ZM847.26-8.7L847.26-32.45Q847.26-35.75 847.11-37.35L847.11-37.35 843.16-37.85Q842.96-38.6 843.16-39.75L843.16-39.75Q846.51-40 851.71-40.8L851.71-40.8Q852.16-40.3 852.21-39.8L852.21-39.8Q851.96-38.5 851.96-31.7L851.96-31.7 851.96-22.25Q855.66-27.35 860.86-27.35L860.86-27.35Q863.96-27.35 866.16-25.8 868.36-24.25 868.36-20.5L868.36-20.5 868.36-2.55 872.41-1.8Q872.61-1 872.41 0.2L872.41 0.2Q869.26 0.05 866.01 0.05L866.01 0.05Q863.71 0.05 859.51 0.15L859.51 0.15Q859.21-0.8 859.51-1.8L859.51-1.8 863.46-2.35Q863.66-5.1 863.66-8.7L863.66-8.7 863.66-18Q863.66-21.5 862.79-23.05 861.91-24.6 859.61-24.6L859.61-24.6Q857.71-24.6 855.64-23.2 853.56-21.8 851.96-19.15L851.96-19.15 851.96-2.55 856.01-1.8Q856.21-1 856.01 0.2L856.01 0.2Q852.86 0.05 849.61 0.05L849.61 0.05Q847.31 0.05 843.11 0.15L843.11 0.15Q842.81-0.8 843.11-1.8L843.11-1.8 847.06-2.35Q847.26-5.1 847.26-8.7L847.26-8.7ZM919.96 0.9L919.96 0.9 918.66-3.2Q912.86 1 907.46 1L907.46 1Q902.56 1 898.91-0.78 895.26-2.55 892.86-5.48 890.46-8.4 889.28-12.13 888.11-15.85 888.11-19.75L888.11-19.75Q888.11-23.7 889.48-27.48 890.86-31.25 893.53-34.2 896.21-37.15 900.06-38.98 903.91-40.8 908.86-40.8L908.86-40.8Q915.76-40.8 921.56-37.8L921.56-37.8 921.56-28.2Q920.66-28.05 919.96-28.05L919.96-28.05Q919.21-28.05 918.71-28.2L918.71-28.2 917.11-36.55Q913.91-38.55 908.26-38.55L908.26-38.55Q905.11-38.55 902.56-37.13 900.01-35.7 898.16-33.27 896.31-30.85 895.31-27.58 894.31-24.3 894.31-20.6L894.31-20.6Q894.31-16.65 895.23-13.3 896.16-9.95 897.86-7.5 899.56-5.05 901.98-3.68 904.41-2.3 907.41-2.3L907.41-2.3Q912.26-2.3 916.96-4.95L916.96-4.95 916.96-15.6 912.91-16.1Q912.81-16.35 912.81-16.9L912.81-16.9Q912.81-17.15 912.81-17.4 912.81-17.65 912.91-17.95L912.91-17.95Q914.31-17.85 915.98-17.8 917.66-17.75 919.76-17.75L919.76-17.75Q923.41-17.75 926.66-17.9L926.66-17.9Q926.81-17.45 926.81-17L926.81-17Q926.81-16.55 926.66-16.1L926.66-16.1 922.51-15.5Q922.41-14.55 922.36-13.1 922.31-11.65 922.31-9.65L922.31-9.65 922.31-4.6 921.81 0.9Q921.61 1 921.41 1 921.21 1 920.96 1L920.96 1Q920.71 1 920.46 1 920.21 1 919.96 0.9ZM934.56-6.65L934.56-6.65Q934.56-4.05 935.51-2.98 936.46-1.9 938.51-1.9L938.51-1.9Q940.01-1.9 941.83-2.83 943.66-3.75 945.21-5.5L945.21-5.5 945.21-13.3Q940.06-13 937.31-11.48 934.56-9.95 934.56-6.65ZM945.21-15.1L945.21-15.1 945.21-17.65Q945.21-21.9 944.23-23.83 943.26-25.75 941.01-25.75L941.01-25.75Q938.71-25.75 937.31-24.28 935.91-22.8 935.41-19.25L935.41-19.25Q933.81-18.9 933.06-18.9L933.06-18.9Q931.11-18.9 930.76-20.3L930.76-20.3Q930.76-23.7 933.71-25.7 936.66-27.7 941.06-27.7L941.06-27.7Q945.91-27.7 947.93-25.73 949.96-23.75 949.96-18.65L949.96-18.65 949.96-4.55Q949.96-3.3 950.11-2.4L950.11-2.4 954.06-1.9Q954.26-1.15 954.06 0L954.06 0Q950.51 0.15 946.51 0.7L946.51 0.7Q946.11 0.3 946.01-0.3L946.01-0.3 945.76-3.75Q941.61 1 936.51 1L936.51 1Q933.36 1 931.58-0.8 929.81-2.6 929.81-5.65L929.81-5.65Q929.81-10.25 933.98-12.6 938.16-14.95 945.21-15.1ZM993.1-8.7L993.1-17.85Q993.1-24.8 988.65-24.8L988.65-24.8Q984.85-24.8 981.45-19.55L981.45-19.55 981.45-2.55 985.5-1.8Q985.7-1 985.5 0.2L985.5 0.2Q982.35 0.05 979.1 0.05L979.1 0.05Q976.8 0.05 972.6 0.15L972.6 0.15Q972.3-0.8 972.6-1.8L972.6-1.8 976.55-2.35Q976.75-5.1 976.75-8.7L976.75-8.7 976.75-17.85Q976.75-24.8 972.3-24.8L972.3-24.8Q970.05-24.8 968.35-23.43 966.65-22.05 964.85-19.15L964.85-19.15 964.85-2.55 968.9-1.8Q969.1-1 968.9 0.2L968.9 0.2Q965.75 0.05 962.5 0.05L962.5 0.05Q960.2 0.05 956 0.15L956 0.15Q955.7-0.8 956-1.8L956-1.8 959.95-2.35Q960.15-5.1 960.15-8.7L960.15-8.7 960.15-22.4Q960.15-23.4 960-24.25L960-24.25 956.05-24.75Q955.85-25.5 956.05-26.65L956.05-26.65Q959.4-26.9 964.6-27.7L964.6-27.7Q965.05-27.2 965.1-26.7L965.1-26.7Q964.85-25.4 964.85-22.25L964.85-22.25Q968.8-27.7 973.75-27.7L973.75-27.7Q976.35-27.7 978.5-26.38 980.65-25.05 981.25-22.3L981.25-22.3Q985.25-27.7 990.1-27.7L990.1-27.7Q993.15-27.7 995.48-25.9 997.8-24.1 997.8-20.35L997.8-20.35 997.8-2.55 1001.85-1.8Q1002.05-1 1001.85 0.2L1001.85 0.2Q998.7 0.05 995.45 0.05L995.45 0.05Q993.15 0.05 988.95 0.15L988.95 0.15Q988.65-0.8 988.95-1.8L988.95-1.8 992.9-2.35Q993.1-5.1 993.1-8.7L993.1-8.7ZM1025.6-14.1L1025.6-14.1 1009.9-14.1Q1009.45-1.35 1017.55-1.35L1017.55-1.35Q1021-1.35 1024.6-4.4L1024.6-4.4Q1025.35-3.95 1025.75-2.85L1025.75-2.85Q1022.3 1 1017 1L1017 1Q1004.8 1 1004.8-13.35L1004.8-13.35Q1004.8-20.15 1008.4-23.93 1012-27.7 1016.8-27.7L1016.8-27.7Q1022.05-27.7 1024.35-24.05 1026.65-20.4 1026.65-14.55L1026.65-14.55Q1026.15-14.15 1025.6-14.1ZM1016.7-25.7L1016.7-25.7Q1014.1-25.7 1012.28-23 1010.45-20.3 1010.05-16.1L1010.05-16.1 1016.25-16.1Q1019.95-16.1 1021.55-16.55L1021.55-16.55Q1021.55-20.65 1020.3-23.18 1019.05-25.7 1016.7-25.7ZM1039.9-1.2L1039.9-1.2Q1042.6-1.2 1043.9-2.45 1045.2-3.7 1045.2-5.35L1045.2-5.35Q1045.2-6.3 1044.9-7.1 1044.6-7.9 1043.92-8.65 1043.25-9.4 1042.15-10.13 1041.05-10.85 1039.4-11.7L1039.4-11.7Q1037.35-12.75 1035.87-13.7 1034.4-14.65 1033.45-15.7 1032.5-16.75 1032.02-17.95 1031.55-19.15 1031.55-20.65L1031.55-20.65Q1031.55-22.45 1032.2-23.78 1032.85-25.1 1034.02-25.98 1035.2-26.85 1036.8-27.28 1038.4-27.7 1040.35-27.7L1040.35-27.7Q1044.25-27.7 1047.95-25.8L1047.95-25.8 1047.95-19.4 1045.6-19.4 1044.5-24.8Q1042.3-25.85 1039.85-25.85L1039.85-25.85Q1035.75-25.85 1035.75-22.5L1035.75-22.5Q1035.75-20.7 1037.1-19.2 1038.45-17.7 1041.45-16.2L1041.45-16.2Q1043.5-15.15 1045.05-14.2 1046.6-13.25 1047.62-12.2 1048.65-11.15 1049.17-9.93 1049.7-8.7 1049.7-7.15L1049.7-7.15Q1049.7-5.4 1048.95-3.9 1048.2-2.4 1046.85-1.33 1045.5-0.25 1043.6 0.38 1041.7 1 1039.4 1L1039.4 1Q1034.95 1 1031.05-0.9L1031.05-0.9 1031.05-7.3 1033.4-7.3 1034.5-2.35Q1037.05-1.2 1039.9-1.2Z" opacity="1" transform="matrix(1,0,0,1,0,0)" fill="#000000" class="slogan-text-1" data-fill-palette-color="secondary" id="text-1"></path></svg></g></svg></g></svg></g></svg></g></svg></g><defs></defs></svg><rect width="395.52" height="190.96710066560556" fill="none" stroke="none" visibility="hidden"></rect></g></svg></g></svg>